# xmcd
#
# Track frame offsets:
#	150
#	14365
#	30345
#	42042
#	57472
#	72633
#	88190
#	102577
#	117243
#	133194
#	146731
#	165473
#	180817
#	198715
#	214865
#	227650
#	242037
#	255939
#	271943
#	287567
#	307245
#	321326
#	335426
#	350164
#
# Disc length: 4869 seconds
# Revision: 0
# Processed by: cddbd v1.5.2PL0 Copyright (c) Steve Scherf et al.
# Submitted via: dBpowerAMP V12.0
#
DISCID=6f130318
DTITLE=Various Artist - 53rd CMA Awards
DYEAR=2019
DGENRE=Country Sampler
TTITLE0=Keith Urban - We Were
TTITLE1=Dan and Shay - Speechless
TTITLE2=Lil Nas X feat. Billy Ray Cyrus - Old Town Road (Remix)
TTITLE3=Lady Antebellum - What If I Never Get Over You
TTITLE4=Carrie Underwood - Southbound
TTITLE5=Zac Brown Band - Someone I Used To Know
TTITLE6=Luke Combs - Beautiful Crazy
TTITLE7=Eric Church - Some Of It
TTITLE8=Kacey Musgraves - Rainbow
TTITLE9=Midland - Mr. Lonely
TTITLE10=Maren Morris - Girl
TTITLE11=Blake Shelton - God's Country
TTITLE12=Dierks Bentley feat. Brothers Osborne - Burning Man
TTITLE13=Miranda Lambert - It All Comes Out In The Wash
TTITLE14=Thomas Rhett - Look What God Gave Her
TTITLE15=Kelsea Ballerini - Miss Me More
TTITLE16=Old Dominion - Written In The Sand
TTITLE17=Cody Johnson - On My Way To You
TTITLE18=Brothers Osborne - Shoot Me Straight
TTITLE19=Little Big Town - Better Man
TTITLE20=Maddie and Tae - Friends Don't
TTITLE21=Carly Pearce - Closer To You
TTITLE22=Morgan Wallen feat. Florida Georgia Line - Up Down
TTITLE23=Blanco Brown - The Git Up
EXTD=
EXTT0=
EXTT1=
EXTT2=
EXTT3=
EXTT4=
EXTT5=
EXTT6=
EXTT7=
EXTT8=
EXTT9=
EXTT10=
EXTT11=
EXTT12=
EXTT13=
EXTT14=
EXTT15=
EXTT16=
EXTT17=
EXTT18=
EXTT19=
EXTT20=
EXTT21=
EXTT22=
EXTT23=
PLAYORDER=
